<?xml version="1.0" encoding="UTF-8" standalone="no"?>
<!DOCTYPE svg PUBLIC "-//W3C//DTD SVG 1.1//EN" "http://www.w3.org/Graphics/SVG/1.1/DTD/svg11.dtd">
<svg width="100%" height="100%" viewBox="0 0 432 432" version="1.1" xmlns="http://www.w3.org/2000/svg" xmlns:xlink="http://www.w3.org/1999/xlink" xml:space="preserve" xmlns:serif="http://www.serif.com/" style="fill-rule:evenodd;clip-rule:evenodd;stroke-linejoin:round;stroke-miterlimit:2;">
    <g transform="matrix(0.209709,0,0,0.209709,0,0)">
        <rect x="0" y="0" width="2060" height="2060" style="fill:rgb(210,210,249);"/>
    </g>
    <g transform="matrix(1,0,0,1,-103.546,33.6804)">
        <circle cx="220.036" cy="176.335" r="34.933" style="fill:rgb(182,91,73);"/>
    </g>
    <g transform="matrix(1,0,0,1,-8.90722,33.6804)">
        <circle cx="220.036" cy="176.335" r="34.933" style="fill:rgb(182,91,73);"/>
    </g>
    <g transform="matrix(1,0,0,1,85.732,33.6804)">
        <circle cx="220.036" cy="176.335" r="34.933" style="fill:rgb(182,91,73);"/>
    </g>
    <g transform="matrix(1,0,0,1,-103.546,128.876)">
        <circle cx="220.036" cy="176.335" r="34.933" style="fill:rgb(186,69,165);"/>
    </g>
    <g transform="matrix(1,0,0,1,-8.90722,128.876)">
        <circle cx="220.036" cy="176.335" r="34.933" style="fill:rgb(186,69,165);"/>
    </g>
    <g transform="matrix(1,0,0,1,85.732,128.876)">
        <circle cx="220.036" cy="176.335" r="34.933" style="fill:rgb(186,69,165);"/>
    </g>
    <path d="M116.49,79.887L305.768,79.887C325.048,79.887 340.701,95.54 340.701,114.82C340.701,134.1 325.048,149.753 305.768,149.753L116.49,149.753C97.21,149.753 81.557,134.1 81.557,114.82C81.557,95.54 97.21,79.887 116.49,79.887Z" style="fill:rgb(92,144,163);"/>
</svg>
